HIERARCHY
ROOT hip
{
	OFFSET 0.000000 0.000000 0.000000
	CHANNELS 6 Xposition Yposition Zposition Zrotation Yrotation Xrotation 
	JOINT lhipjoint
	{
		OFFSET 0.000000 0.000000 0.000000
		CHANNELS 3 Zrotation Yrotation Xrotation
		JOINT lfemur
		{
			OFFSET 1.363060 -1.794630 0.839290
			CHANNELS 3 Zrotation Yrotation Xrotation
			JOINT ltibia
			{
				OFFSET 2.448110 -6.726130 0.000000
				CHANNELS 3 Zrotation Yrotation Xrotation
				JOINT lfoot
				{
					OFFSET 2.562200 -7.039590 0.000000
					CHANNELS 3 Zrotation Yrotation Xrotation
					JOINT ltoes
					{
						OFFSET 0.157640 -0.433110 2.322550
						CHANNELS 3 Zrotation Yrotation Xrotation
						End Site
						{
							OFFSET 0.000000 0.000000 0.000000
						}
					}
				}
			}
		}
	}
	JOINT rhipjoint
	{
		OFFSET 0.000000 0.000000 0.000000
		CHANNELS 3 Zrotation Yrotation Xrotation
		JOINT rfemur
		{
			OFFSET -1.305520 -1.794630 0.839290
			CHANNELS 3 Zrotation Yrotation Xrotation
			JOINT rtibia
			{
				OFFSET -2.542530 -6.985550 0.000000
				CHANNELS 3 Zrotation Yrotation Xrotation
				JOINT rfoot
				{
					OFFSET -2.568260 -7.056230 0.000000
					CHANNELS 3 Zrotation Yrotation Xrotation
					JOINT rtoes
					{
						OFFSET -0.164730 -0.452590 2.363150
						CHANNELS 3 Zrotation Yrotation Xrotation
						End Site
						{
							OFFSET 0.000000 0.000000 0.000000
						}
					}
				}
			}
		}
	}
	JOINT lowerback
	{
		OFFSET 0.000000 0.000000 0.000000
		CHANNELS 3 Zrotation Yrotation Xrotation
		JOINT upperback
		{
			OFFSET 0.028270 2.035590 -0.193380
			CHANNELS 3 Zrotation Yrotation Xrotation
			JOINT thorax
			{
				OFFSET 0.056720 2.048850 -0.042750
				CHANNELS 3 Zrotation Yrotation Xrotation
				JOINT lowerneck
				{
					OFFSET 0.000000 0.000000 0.000000
					CHANNELS 3 Zrotation Yrotation Xrotation
					JOINT upperneck
					{
						OFFSET -0.054170 1.746240 0.172020
						CHANNELS 3 Zrotation Yrotation Xrotation
						JOINT head
						{
							OFFSET 0.104070 1.761360 -0.123970
							CHANNELS 3 Zrotation Yrotation Xrotation
							End Site
							{
								OFFSET 0.000000 0.000000 0.000000
							}
						}
					}
				}
				JOINT lclavicle
				{
					OFFSET 0.000000 0.000000 0.000000
					CHANNELS 3 Zrotation Yrotation Xrotation
					JOINT lhumerus
					{
						OFFSET 3.362410 1.200890 -0.311210
						CHANNELS 3 Zrotation Yrotation Xrotation
						JOINT lradius
						{
							OFFSET 4.983000 -0.000000 -0.000000
							CHANNELS 3 Zrotation Yrotation Xrotation
							JOINT lwrist
							{
								OFFSET 3.483560 -0.000000 -0.000000
								CHANNELS 3 Zrotation Yrotation Xrotation
								JOINT lhand
								{
									OFFSET 0.000000 0.000000 0.000000
									CHANNELS 3 Zrotation Yrotation Xrotation
									JOINT lfingers
									{
										OFFSET 0.715260 -0.000000 -0.000000
										CHANNELS 3 Zrotation Yrotation Xrotation
										End Site
										{
											OFFSET 0.000000 0.000000 0.000000
										}
									}
								}
								JOINT lthumb
								{
									OFFSET 0.000000 0.000000 0.000000
									CHANNELS 3 Zrotation Yrotation Xrotation
									End Site
									{
										OFFSET 0.000000 0.000000 0.000000
									}
								}
							}
						}
					}
				}
				JOINT rclavicle
				{
					OFFSET 0.000000 0.000000 0.000000
					CHANNELS 3 Zrotation Yrotation Xrotation
					JOINT rhumerus
					{
						OFFSET -3.136600 1.374050 -0.404650
						CHANNELS 3 Zrotation Yrotation Xrotation
						JOINT rradius
						{
							OFFSET -5.241900 -0.000000 -0.000000
							CHANNELS 3 Zrotation Yrotation Xrotation
							JOINT rwrist
							{
								OFFSET -3.444170 -0.000000 -0.000000
								CHANNELS 3 Zrotation Yrotation Xrotation
								JOINT rhand
								{
									OFFSET 0.000000 0.000000 0.000000
									CHANNELS 3 Zrotation Yrotation Xrotation
									JOINT rfingers
									{
										OFFSET -0.622530 -0.000000 -0.000000
										CHANNELS 3 Zrotation Yrotation Xrotation
										End Site
										{
											OFFSET 0.000000 0.000000 0.000000
										}
									}
								}
								JOINT rthumb
								{
									OFFSET 0.000000 0.000000 0.000000
									CHANNELS 3 Zrotation Yrotation Xrotation
									End Site
									{
										OFFSET 0.000000 0.000000 0.000000
									}
								}
							}
						}
					}
				}
			}
		}
	}
}
MOTION
Frames: 6
Frame Time: 0.008333
-1.259034 17.702326 4.233815 -176.067278 -8.792008 163.448718 -1.568762 2.866074 1.845169 -10.447953 0.692596 -1.642672 1.366882 7.130754 21.912657 0.822107 -2.605239 11.384957 0.161600 -2.589800 -7.138700 0.428051 -4.197630 1.568634 21.723484 -4.982130 17.456006 -1.622931 -5.676996 21.267676 0.534254 -3.684244 -6.347483 -0.529400 4.662700 -12.949000 0.270733 0.178397 9.603576 0.527968 -0.664517 -2.291085 3.620561 -0.214355 6.152352 -17.229887 -10.584795 4.953177 -5.804643 -13.512860 9.362348 4.545600 -7.507600 2.638800 -2.725572 5.034941 -0.407308 57.666602 -63.445693 -78.145837 54.201241 -56.605818 -25.466069 0.887526 0.654759 74.988186 16.359497 9.738378 2.592400 -7.125000 0.000000 0.000000 -8.754500 38.859100 1.336400 4.483132 -3.172421 4.627085 -57.903112 61.965334 -104.716443 -84.212343 66.563536 -45.141190 -0.226069 -1.422313 165.853652 1.036718 -10.323369 -0.095300 7.125000 0.000000 0.000000 24.036000 -40.365700 2.942800 
-1.222444 17.700378 4.310583 -175.907338 -9.125846 163.267407 -1.562136 2.855788 1.832744 -10.293020 0.466373 -1.782504 1.354064 7.122538 21.860492 0.841378 -2.589001 11.780235 0.191600 -2.818600 -7.774200 0.433449 -4.198187 1.547430 21.870413 -5.352877 17.400666 -1.590157 -5.579379 21.009333 0.542804 -3.718683 -6.365528 -0.461700 4.358700 -12.088000 0.532447 0.151255 9.775827 0.537711 -0.702265 -2.242974 3.528560 -0.223570 6.144079 -17.512950 -10.537342 5.655261 -5.769306 -13.591782 9.426780 4.690800 -7.580000 2.559100 -2.743751 5.122189 -0.462677 58.998938 -64.132167 -78.899692 53.333515 -56.326038 -24.750602 0.876954 0.654939 76.288691 16.121788 9.528368 2.502400 -7.125000 0.000000 0.000000 -8.903800 38.649600 1.405900 4.440188 -3.230846 4.711759 -56.584259 62.706751 -102.761974 -82.537705 66.760222 -43.886984 -0.255908 -1.538025 166.005390 1.983862 -11.029179 -0.295000 7.125000 0.000000 0.000000 25.061400 -41.025000 2.646300 
-1.187084 17.697918 4.385096 -175.736032 -9.516038 163.097844 -1.558918 2.841766 1.818937 -10.148542 0.222206 -1.931180 1.340177 7.111056 21.802316 0.864234 -2.606258 12.147935 0.244800 -3.184000 -8.791500 0.437646 -4.203544 1.525298 21.995389 -5.787143 17.301559 -1.560864 -5.487902 20.773345 0.541897 -3.707348 -6.370024 -0.390000 4.010300 -11.105600 0.781659 0.106419 9.911231 0.557577 -0.764407 -2.195923 3.508150 -0.241807 6.158078 -17.839447 -10.443990 6.210965 -5.695764 -13.603360 9.552430 4.849800 -7.633900 2.548000 -2.756820 5.160432 -0.456427 59.537924 -64.546989 -79.029125 52.171095 -55.899862 -23.869859 0.854880 0.619261 77.748275 15.633506 9.009479 2.289500 -7.125000 0.000000 0.000000 -9.244500 38.130400 1.579800 4.384893 -3.233742 4.681939 -54.544405 62.910553 -100.151186 -81.443483 66.826161 -43.098463 -0.283283 -1.613786 166.049811 2.716878 -11.558832 -0.465200 7.125000 0.000000 0.000000 25.853500 -41.501100 2.413300 
-1.150903 17.695971 4.457457 -175.555535 -9.950894 162.916367 -1.554949 2.824851 1.805450 -10.005389 -0.048226 -2.076572 1.327055 7.098551 21.745265 0.886229 -2.612546 12.515814 0.291300 -3.470500 -9.591700 0.443690 -4.214174 1.506836 22.126824 -6.246585 17.199390 -1.534052 -5.398907 20.545888 0.551022 -3.743852 -6.388290 -0.335800 3.723700 -10.300700 1.031353 0.063808 10.068324 0.571911 -0.824702 -2.159710 3.460017 -0.249909 6.131552 -18.088109 -10.340926 6.650676 -5.629617 -13.590501 9.749460 4.976600 -7.691100 2.593800 -2.766356 5.162442 -0.423883 59.728300 -64.853897 -78.886545 50.581758 -55.267681 -22.712659 0.829693 0.549297 79.368930 15.115799 8.024589 1.951900 -7.125000 0.000000 0.000000 -9.561800 37.147100 1.868400 4.311931 -3.201796 4.588976 -51.773449 62.860342 -97.044819 -81.090293 66.775027 -42.858700 -0.334151 -1.611074 166.379248 2.788587 -12.004402 -0.487800 7.125000 0.000000 0.000000 26.046500 -41.890500 2.162000 
-1.114415 17.693716 4.526230 -175.359903 -10.429434 162.750008 -1.551576 2.805459 1.790832 -9.856355 -0.308652 -2.251482 1.314018 7.086688 21.694489 0.916871 -2.669269 12.914915 0.340400 -3.749200 -10.372200 0.450236 -4.226689 1.489151 22.278333 -6.716171 17.085581 -1.508046 -5.310218 20.320030 0.568551 -3.809199 -6.367417 -0.293100 3.481600 -9.622600 1.276782 0.002238 10.190625 0.588641 -0.910289 -2.126881 3.430213 -0.267158 6.128639 -18.357955 -10.225533 6.939904 -5.505907 -13.545845 9.959073 5.122600 -7.735300 2.687800 -2.781893 5.146887 -0.372520 59.703157 -64.997350 -78.566960 48.540353 -54.393207 -21.269756 0.812029 0.454338 81.021219 14.848851 6.669728 1.557100 -7.125000 0.000000 0.000000 -9.638300 35.797800 2.205400 4.237135 -3.154916 4.452657 -49.074685 62.495524 -94.087899 -80.740632 66.721437 -42.641553 -0.400009 -1.521382 167.182035 2.074097 -12.403487 -0.322100 7.125000 0.000000 0.000000 25.550600 -42.239600 1.875700 
-1.076493 17.691564 4.592031 -175.152808 -10.944465 162.578271 -1.548311 2.783139 1.775422 -9.694644 -0.543846 -2.444034 1.301428 7.076054 21.652835 0.956974 -2.803470 13.297952 0.405700 -4.089300 -11.328000 0.456278 -4.241281 1.472651 22.459528 -7.172208 16.976729 -1.483537 -5.223301 20.098926 0.597631 -3.928606 -6.360489 -0.249700 3.215600 -8.879400 1.505323 -0.058083 10.328961 0.606676 -0.997601 -2.096805 3.420708 -0.282896 6.115144 -18.586538 -10.133754 7.078655 -5.379155 -13.499143 10.167114 5.246100 -7.774400 2.816400 -2.791458 5.096703 -0.289848 59.431197 -64.972933 -77.895685 46.448337 -53.432190 -19.823833 0.802095 0.343733 82.463976 14.830559 5.069723 1.127300 -7.125000 0.000000 0.000000 -9.506100 34.199700 2.548700 4.161445 -3.059956 4.237845 -46.118873 61.568439 -90.440023 -80.370954 66.674090 -42.407935 -0.463709 -1.378487 168.234655 1.002717 -12.674175 -0.064900 7.125000 0.000000 0.000000 24.696100 -42.465300 1.655500 
